#!OML:ASF F:\VICON\USERDATA\INSTALL\rory3\rory3.ASF
:FULLY-SPECIFIED
:DEGREES
391
root 0.728555 17.7523 46.9299 -2.95219 -1.40386 -3.70027
lowerback 9.84333 0.955382 2.23687
upperback -0.421246 1.6207 1.43519
thorax -5.94966 0.750356 0.00286005
lowerneck -16.2956 -3.97254 -2.92767
upperneck 23.0616 -5.73656 3.64847
head 10.2514 -2.4722 0.996116
rclavicle 2.77885e-014 2.09469e-014
rhumerus -28.4582 -18.9018 -78.8609
rradius 30.961
rwrist -0.0899073
rhand -17.6944 22.2357
rfingers 7.12502
rthumb 8.5653 -7.57057
lclavicle 2.77885e-014 2.09469e-014
lhumerus -34.6775 14.4788 77.199
lradius 18.0842
lwrist 2.25516
lhand -30.4189 22.1898
lfingers 7.12502
lthumb -3.72194 52.137
rfemur 2.13327 3.62919 28.4825
rtibia 53.1483
rfoot 10.8181 3.35167
rtoes -2.53018
lfemur -20.5478 -1.80702 -17.841
ltibia 26.4805
lfoot -3.38102 -6.11245
ltoes 5.91074
392
root 0.771196 17.7801 47.1676 -3.03675 -1.0215 -2.30841
lowerback 9.37233 0.877557 1.27454
upperback -0.41936 1.36679 0.96731
thorax -5.69448 0.649794 0.0996267
lowerneck -16.4764 -4.21227 -3.25406
upperneck 23.2912 -6.04992 3.86595
head 10.4 -2.61368 1.07904
rclavicle 1.52573e-015 -1.06598e-014
rhumerus -29.3231 -18.9839 -78.7306
rradius 30.9453
rwrist -0.473919
rhand -17.8531 21.9529
rfingers 7.12502
rthumb 8.41206 -7.85962
lclavicle 1.52573e-015 -1.06598e-014
lhumerus -34.8519 14.928 76.8404
lradius 18.1815
lwrist 1.29035
lhand -30.5007 48.0402
lfingers 7.12502
lthumb -3.80103 77.9861
rfemur 1.26254 3.12363 26.3835
rtibia 55.4561
rfoot 12.1499 4.24774
rtoes 0.0287501
lfemur -19.4765 -2.22374 -19.7634
ltibia 26.4573
lfoot -3.53558 -5.81232
ltoes 6.66561
393
root 0.776731 17.8019 47.3671 -3.28903 -1.22355 -1.81423
lowerback 9.50901 1.02213 0.746401
upperback -0.382452 1.49454 0.842362
thorax -5.74196 0.726175 0.245913
lowerneck -16.2222 -4.12541 -3.16241
upperneck 23.1501 -5.90456 3.68768
head 10.2849 -2.56571 1.02643
rclavicle -3.06732e-014 -2.73329e-015
rhumerus -30.1518 -19.3659 -78.4999
rradius 30.9515
rwrist -0.653764
rhand -17.8336 22.0755
rfingers 7.12502
rthumb 8.43094 -7.73621
lclavicle -3.06732e-014 -2.73329e-015
lhumerus -34.8659 14.3469 77.104
lradius 18.5076
lwrist 2.01384
lhand -29.9974 20.3181
lfingers 7.12502
lthumb -3.31492 50.272
rfemur 0.145712 3.46816 25.7837
rtibia 57.8466
rfoot 13.0236 4.96508
rtoes 3.64471
lfemur -18.5049 -2.2021 -20.4481
ltibia 26.4359
lfoot -4.07974 -5.34459
ltoes 4.96182
394
root 0.790606 17.8153 47.5452 -3.35981 -1.27433 -1.45331
lowerback 9.71331 1.05072 0.48629
upperback -0.326928 1.49516 0.682295
thorax -5.80111 0.731415 0.221617
lowerneck -16.4775 -4.25889 -3.40209
upperneck 22.9258 -6.11507 4.09112
head 10.2838 -2.63438 1.17433
rclavicle 4.40787e-015 -5.29264e-015
rhumerus -30.493 -19.9468 -78.4331
rradius 30.5843
rwrist -0.39035
rhand -17.63 22.7049
rfingers 7.12502
rthumb 8.62739 -7.09886
lclavicle 4.40787e-015 -5.29264e-015
lhumerus -34.4362 13.3858 77.5317
lradius 18.6931
lwrist 2.92233
lhand -30.9233 40.9483
lfingers 7.12502
lthumb -4.20909 70.8864
rfemur -1.13657 3.68031 25.2945
rtibia 60.108
rfoot 13.4978 6.05781
rtoes 9.11108
lfemur -17.6597 -2.31332 -21.034
ltibia 26.2939
lfoot -4.38319 -5.11258
ltoes 4.91863
395
root 0.803282 17.8275 47.7217 -3.42833 -1.21888 -0.724851
lowerback 9.8857 1.07071 -0.129998
upperback -0.302367 1.43505 0.413788
thorax -5.88058 0.715843 0.293522
lowerneck -16.3172 -4.09649 -3.12556
upperneck 22.6814 -5.88607 3.8316
head 10.1371 -2.54123 1.07263
rclavicle -1.63155e-015 -8.15328e-015
rhumerus -30.6167 -20.2764 -78.452
rradius 29.9661
rwrist -0.165426
rhand -17.69 22.7561
rfingers 7.12502
rthumb 8.56951 -7.05
lclavicle -1.63155e-015 -8.15328e-015
lhumerus -34.0165 13.2714 77.3656
lradius 18.7645
lwrist 1.51219
lhand -27.3173 50.8305
lfingers 7.12502
lthumb -0.72653 80.809
rfemur -2.43422 3.7245 24.3809
rtibia 62.3032
rfoot 13.6658 7.24531
rtoes 15.3677
lfemur -16.9122 -2.60338 -22.0117
ltibia 26.4551
lfoot -4.52622 -4.77517
ltoes 7.01343
396
root 0.805605 17.8368 47.8989 -3.49252 -1.10964 -0.143685
lowerback 9.98335 1.06054 -0.783495
upperback -0.267666 1.33546 0.265364
thorax -5.91003 0.684099 0.519497
lowerneck -16.514 -4.38058 -3.67856
upperneck 22.5133 -6.27168 4.41383
head 10.1704 -2.69708 1.31115
rclavicle 1.79326e-015 -6.90777e-015
rhumerus -30.6005 -20.4198 -78.4326
rradius 29.2123
rwrist 0.459255
rhand -17.7566 22.1597
rfingers 7.12502
rthumb 8.50521 -7.64897
lclavicle 1.79326e-015 -6.90777e-015
lhumerus -33.7791 11.9307 78.0891
lradius 18.7653
lwrist 4.49664
lhand -27.8362 21.3397
lfingers 7.12502
lthumb -1.22774 51.316
rfemur -3.75451 3.63843 23.6601
rtibia 64.3219
rfoot 13.3046 7.87588
rtoes 18.2862
lfemur -16.3387 -2.90311 -22.7926
ltibia 26.7269
lfoot -5.03189 -4.33421
ltoes 5.94828
